<?xml version="1.0" encoding="UTF-8"?>
<svg width="233px" height="128px" viewBox="0 0 233 128" version="1.1" xmlns="http://www.w3.org/2000/svg" xmlns:xlink="http://www.w3.org/1999/xlink">
    <!-- Generator: Sketch 59.1 (86144) - https://sketch.com -->
    <title>Field Maps</title>
    <desc>Created with Sketch.</desc>
    <g id="Examples" stroke="none" stroke-width="1" fill="none" fill-rule="evenodd">
        <g id="Logos" transform="translate(0.000000, -446.000000)">
            <g id="Field-Maps" transform="translate(-1.000000, 438.000000)">
                <g id="App-Logo" transform="translate(0.497863, 0.000000)">
                    <rect id="Bounds" x="1" y="0" width="234" height="139"></rect>
                    <g id="Logo" transform="translate(70.000000, 7.000000)" fill="#007AC2" fill-rule="nonzero">
                        <path d="M77.7473285,1 L19.2573285,1 C16.6510969,1.01425872 14.1576872,2.06513726 12.3274833,3.92066954 C10.4972793,5.77620181 9.48076768,8.28381855 9.50232855,10.89 L9.50232855,36.807 C9.50212668,36.8831894 9.54100942,36.9541599 9.60532855,36.995 C12.2058068,38.7074042 15.1359989,39.8563856 18.2073285,40.368 C18.2811685,40.3792405 18.3562018,40.3572795 18.4123285,40.308 C18.4693368,40.2583869 18.5021449,40.1865736 18.5023285,40.111 L18.5023285,27.791 L57.4043285,36.403 C57.5603168,36.4379899 57.6933623,36.5391183 57.7688218,36.6800527 C57.8442812,36.8209871 57.8546866,36.9877797 57.7973285,37.137 C56.9421413,39.4066071 56.1929983,41.7147686 55.5523285,44.054 C52.2813285,56.017 51.5523285,68.896 35.8363285,70 L22.8383285,70 C20.4218818,69.9780078 18.4806916,68.0014499 18.5023285,65.585 L18.5023285,57.502 C18.9899709,57.6129868 19.4848842,57.6891787 19.9833285,57.73 C20.7119507,57.8097969 21.4443503,57.8501891 22.1773285,57.851 C26.5543285,57.851 28.5613285,57.245 33.8753285,55.012 C34.0647794,54.9324813 34.2829805,55.0197617 34.3653285,55.208 L36.5393285,60.215 C36.5993775,60.3557498 36.734975,60.4494572 36.887865,60.4558632 C37.040755,60.4622692 37.183716,60.3802333 37.2553285,60.245 L45.8073285,44.379 C45.8678679,44.2663826 45.8733967,44.1322166 45.8223285,44.015 C45.7709543,43.899102 45.6679199,43.8142284 45.5443285,43.786 L28.9273285,39.991 C28.7801245,39.9580074 28.6269616,40.0115175 28.5323285,40.129 C28.4358003,40.2477864 28.4130799,40.4102946 28.4733285,40.551 L30.6423285,45.635 C30.6832385,45.7308159 30.6832385,45.8391841 30.6423285,45.935 C30.6041261,46.0311074 30.5271461,46.1066349 30.4303285,46.143 C27.4836026,47.4310632 24.2797716,48.0230345 21.0673285,47.873 C13.3463891,47.7478386 5.93555204,44.8138638 0.221328547,39.62 C0.177758974,39.578652 0.111416945,39.5728471 0.0613285474,39.606 C0.0114991395,39.6390229 -0.0111657782,39.700542 0.00532854744,39.758 C0.849328547,42.668 3.06432855,48.615 7.89932855,52.871 C8.3947421,53.2839273 8.9320002,53.6438869 9.50232855,53.945 L9.50232855,71.067 C9.45350648,76.5035573 13.8207772,80.9505179 19.2573285,81 L77.7473285,81 C83.1838799,80.9505179 87.5511506,76.5035573 87.5027339,71.067 L87.5027339,10.89 C87.5238894,8.28381855 86.5073778,5.77620181 84.6771738,3.92066954 C82.8469699,2.06513726 80.3535602,1.01425872 77.7473285,1 Z M37.8123285,22.972 C37.7571877,23.2578765 37.5894677,23.5095978 37.3468731,23.6705753 C37.1042785,23.8315528 36.8071661,23.8882784 36.5223285,23.828 L18.5021494,19.79 L18.5021494,14.415 C18.4806916,11.9985501 20.4218818,10.0219922 22.8383285,10 L40.3763285,10 L37.8123285,22.972 Z M78.5025077,65.585 C78.5239655,68.0014499 76.5827753,69.9780078 74.1663285,70 L54.9403285,70 C59.6823285,63.654 59.4553285,58.948 62.9543285,46.151 C63.6263285,43.691 65.4183285,31.533 78.5025077,30.055 L78.5025077,65.585 Z M78.5025077,22.2 C72.4564878,22.5883399 66.7672682,25.1966556 62.5273285,29.524 L46.1553285,25.938 C45.5686094,25.8036392 45.1976446,25.2240624 45.3213285,24.635 L48.2233285,10 L74.1663285,10 C76.5827753,10.0219922 78.5239655,11.9985501 78.5025077,14.415 L78.5025077,22.2 Z" id="Field-Maps"></path>
                    </g>
                    <g id="Full-Name" transform="translate(0.000000, 105.000000)" fill="#000000">
                        <path d="M102.464,4.176 L114.756,4.176 L114.756,6.36 L104.816,6.36 L104.816,12.912 L114.056,12.912 L114.056,15.096 L104.816,15.096 L104.816,24 L102.464,24 L102.464,4.176 Z M117.424235,10.896 L119.608235,10.896 L119.608235,24 L117.424235,24 L117.424235,10.896 Z M116.920235,5.772 C116.920235,5.34266452 117.074234,4.96933492 117.382235,4.652 C117.690237,4.33466508 118.068233,4.176 118.516235,4.176 C118.964238,4.176 119.342234,4.33466508 119.650235,4.652 C119.958237,4.96933492 120.112235,5.34266452 120.112235,5.772 C120.112235,6.238669 119.962903,6.62133184 119.664235,6.92 C119.365567,7.21866816 118.982904,7.368 118.516235,7.368 C118.049566,7.368 117.666903,7.21866816 117.368235,6.92 C117.069567,6.62133184 116.920235,6.238669 116.920235,5.772 Z M135.240471,21.62 C134.456467,22.628005 133.597809,23.3326647 132.664471,23.734 C131.731133,24.1353353 130.648477,24.336 129.416471,24.336 C128.389799,24.336 127.465808,24.1540018 126.644471,23.79 C125.823133,23.4259982 125.127807,22.9360031 124.558471,22.32 C123.989134,21.7039969 123.550472,20.9760042 123.242471,20.136 C122.934469,19.2959958 122.780471,18.4000048 122.780471,17.448 C122.780471,16.439995 122.948469,15.5113376 123.284471,14.662 C123.620472,13.8126624 124.087134,13.0846697 124.684471,12.478 C125.281807,11.8713303 125.991133,11.4000017 126.812471,11.064 C127.633808,10.7279983 128.529799,10.56 129.500471,10.56 C130.415142,10.56 131.255133,10.7139985 132.020471,11.022 C132.785808,11.3300015 133.443801,11.7779971 133.994471,12.366 C134.54514,12.9540029 134.969802,13.6726624 135.268471,14.522 C135.567139,15.3713376 135.716471,16.3373279 135.716471,17.42 L135.716471,18.12 L125.132471,18.12 C125.169804,18.6800028 125.305136,19.2166641 125.538471,19.73 C125.771805,20.2433359 126.075135,20.6913314 126.448471,21.074 C126.821806,21.4566686 127.260468,21.7599989 127.764471,21.984 C128.268473,22.2080011 128.819134,22.32 129.416471,22.32 C130.368475,22.32 131.171134,22.1520017 131.824471,21.816 C132.477807,21.4799983 133.065801,20.9853366 133.588471,20.332 L135.240471,21.62 Z M133.364471,16.272 C133.327137,15.1519944 132.963141,14.2560034 132.272471,13.584 C131.5818,12.9119966 130.62981,12.576 129.416471,12.576 C128.203131,12.576 127.223141,12.9119966 126.476471,13.584 C125.7298,14.2560034 125.281805,15.1519944 125.132471,16.272 L133.364471,16.272 Z M138.888706,2.832 L141.072706,2.832 L141.072706,24 L138.888706,24 L138.888706,2.832 Z M155.892941,21.676 L155.836941,21.676 C155.426272,22.4226704 154.777612,23.0526641 153.890941,23.566 C153.00427,24.0793359 151.972947,24.336 150.796941,24.336 C149.88227,24.336 149.023612,24.1633351 148.220941,23.818 C147.41827,23.4726649 146.722944,22.9920031 146.134941,22.376 C145.546938,21.7599969 145.084943,21.0320042 144.748941,20.192 C144.412939,19.3519958 144.244941,18.4373383 144.244941,17.448 C144.244941,16.4586617 144.412939,15.5440042 144.748941,14.704 C145.084943,13.8639958 145.551605,13.1360031 146.148941,12.52 C146.746277,11.9039969 147.469604,11.4233351 148.318941,11.078 C149.168279,10.7326649 150.106269,10.56 151.132941,10.56 C152.084946,10.56 152.957604,10.755998 153.750941,11.148 C154.544278,11.540002 155.239605,12.0906631 155.836941,12.8 L155.892941,12.8 L155.892941,2.832 L158.076941,2.832 L158.076941,24 L155.892941,24 L155.892941,21.676 Z M155.892941,17.448 C155.892941,16.7573299 155.785609,16.1180029 155.570941,15.53 C155.356273,14.9419971 155.04361,14.4286689 154.632941,13.99 C154.222272,13.5513311 153.732277,13.2060013 153.162941,12.954 C152.593605,12.7019987 151.954278,12.576 151.244941,12.576 C150.535604,12.576 149.896277,12.7019987 149.326941,12.954 C148.757605,13.2060013 148.26761,13.5513311 147.856941,13.99 C147.446272,14.4286689 147.133609,14.9419971 146.918941,15.53 C146.704273,16.1180029 146.596941,16.7573299 146.596941,17.448 C146.596941,18.1386701 146.704273,18.7779971 146.918941,19.366 C147.133609,19.9540029 147.446272,20.4673311 147.856941,20.906 C148.26761,21.3446689 148.757605,21.6899987 149.326941,21.942 C149.896277,22.1940013 150.535604,22.32 151.244941,22.32 C151.954278,22.32 152.593605,22.1940013 153.162941,21.942 C153.732277,21.6899987 154.222272,21.3446689 154.632941,20.906 C155.04361,20.4673311 155.356273,19.9540029 155.570941,19.366 C155.785609,18.7779971 155.892941,18.1386701 155.892941,17.448 Z M169.461412,4.176 L172.961412,4.176 L179.681412,19.716 L179.737412,19.716 L186.513412,4.176 L189.929412,4.176 L189.929412,24 L187.577412,24 L187.577412,7.368 L187.521412,7.368 L180.409412,24 L178.981412,24 L171.869412,7.368 L171.813412,7.368 L171.813412,24 L169.461412,24 L169.461412,4.176 Z M193.885647,12.576 C194.55765,11.8853299 195.355642,11.3766683 196.279647,11.05 C197.203652,10.7233317 198.141642,10.56 199.093647,10.56 C201.03499,10.56 202.434976,11.0173288 203.293647,11.932 C204.152318,12.8466712 204.581647,14.237324 204.581647,16.104 L204.581647,21.732 C204.581647,22.1053352 204.600314,22.4926647 204.637647,22.894 C204.674981,23.2953353 204.721647,23.6639983 204.777647,24 L202.677647,24 C202.60298,23.7013318 202.56098,23.3700018 202.551647,23.006 L202.538522,22.2578753 C202.537939,22.1826254 202.537647,22.1100003 202.537647,22.04 L202.481647,22.04 C202.052312,22.7120034 201.478317,23.2626645 200.759647,23.692 C200.040977,24.1213355 199.177652,24.336 198.169647,24.336 C197.497644,24.336 196.86765,24.2520008 196.279647,24.084 C195.691644,23.9159992 195.178316,23.6686683 194.739647,23.342 C194.300978,23.0153317 193.950982,22.6093358 193.689647,22.124 C193.428312,21.6386642 193.297647,21.0786698 193.297647,20.444 C193.297647,19.3613279 193.577644,18.5120031 194.137647,17.896 C194.69765,17.2799969 195.392976,16.8226682 196.223647,16.524 C197.054318,16.2253318 197.950309,16.038667 198.911647,15.964 C199.872985,15.889333 200.754976,15.852 201.557647,15.852 L202.397647,15.852 L202.397647,15.46 C202.397647,14.5079952 202.112983,13.7893358 201.543647,13.304 C200.974311,12.8186642 200.176319,12.576 199.149647,12.576 C198.44031,12.576 197.744984,12.6926655 197.063647,12.926 C196.38231,13.1593345 195.780316,13.5186642 195.257647,14.004 L193.885647,12.576 Z M200.213647,17.7 C198.81364,17.7 197.702984,17.895998 196.881647,18.288 C196.06031,18.680002 195.649647,19.3239955 195.649647,20.22 C195.649647,21.0413374 195.924978,21.6246649 196.475647,21.97 C197.026316,22.3153351 197.71231,22.488 198.533647,22.488 C199.168317,22.488 199.723645,22.3806677 200.199647,22.166 C200.675649,21.9513323 201.072312,21.6666684 201.389647,21.312 C201.706982,20.9573316 201.949646,20.5420024 202.117647,20.066 C202.285648,19.5899976 202.37898,19.081336 202.397647,18.54 L202.397647,17.7 L200.213647,17.7 Z M208.061882,10.896 L210.245882,10.896 L210.245882,12.8 L210.301882,12.8 C210.899219,12.0906631 211.594545,11.540002 212.387882,11.148 C213.18122,10.755998 214.053878,10.56 215.005882,10.56 C216.032554,10.56 216.970545,10.7326649 217.819882,11.078 C218.66922,11.4233351 219.392546,11.9039969 219.989882,12.52 C220.587219,13.1360031 221.053881,13.8639958 221.389882,14.704 C221.725884,15.5440042 221.893882,16.4586617 221.893882,17.448 C221.893882,18.4373383 221.725884,19.3519958 221.389882,20.192 C221.053881,21.0320042 220.591885,21.7599969 220.003882,22.376 C219.415879,22.9920031 218.720553,23.4726649 217.917882,23.818 C217.115212,24.1633351 216.256554,24.336 215.341882,24.336 C214.165876,24.336 213.134553,24.0793359 212.247882,23.566 C211.361211,23.0526641 210.712551,22.4226704 210.301882,21.676 L210.245882,21.676 L210.245882,30.384 L208.061882,30.384 L208.061882,10.896 Z M210.245882,17.448 C210.245882,18.1386701 210.353215,18.7779971 210.567882,19.366 C210.78255,19.9540029 211.095214,20.4673311 211.505882,20.906 C211.916551,21.3446689 212.406546,21.6899987 212.975882,21.942 C213.545219,22.1940013 214.184545,22.32 214.893882,22.32 C215.603219,22.32 216.242546,22.1940013 216.811882,21.942 C217.381219,21.6899987 217.871214,21.3446689 218.281882,20.906 C218.692551,20.4673311 219.005215,19.9540029 219.219882,19.366 C219.43455,18.7779971 219.541882,18.1386701 219.541882,17.448 C219.541882,16.7573299 219.43455,16.1180029 219.219882,15.53 C219.005215,14.9419971 218.692551,14.4286689 218.281882,13.99 C217.871214,13.5513311 217.381219,13.2060013 216.811882,12.954 C216.242546,12.7019987 215.603219,12.576 214.893882,12.576 C214.184545,12.576 213.545219,12.7019987 212.975882,12.954 C212.406546,13.2060013 211.916551,13.5513311 211.505882,13.99 C211.095214,14.4286689 210.78255,14.9419971 210.567882,15.53 C210.353215,16.1180029 210.245882,16.7573299 210.245882,17.448 Z M225.150118,20.556 C225.579453,21.097336 226.050782,21.5266651 226.564118,21.844 C227.077454,22.1613349 227.726114,22.32 228.510118,22.32 C228.846119,22.32 229.186783,22.282667 229.532118,22.208 C229.877453,22.133333 230.190116,22.0120008 230.470118,21.844 C230.750119,21.6759992 230.974117,21.4660013 231.142118,21.214 C231.310118,20.9619987 231.394118,20.6586684 231.394118,20.304 C231.394118,19.9493316 231.314785,19.6600011 231.156118,19.436 C230.99745,19.2119989 230.787452,19.0206675 230.526118,18.862 C230.264783,18.7033325 229.966119,18.5773338 229.630118,18.484 C229.406117,18.4217775 229.17797,18.3637037 228.945674,18.3097778 L228.594118,18.232 C227.978115,18.1013327 227.39012,17.9520008 226.830118,17.784 C226.270115,17.6159992 225.78012,17.396668 225.360118,17.126 C224.940116,16.855332 224.604119,16.5053355 224.352118,16.076 C224.100116,15.6466645 223.974118,15.0960034 223.974118,14.424 C223.974118,13.7893302 224.114116,13.2293358 224.394118,12.744 C224.674119,12.2586642 225.047449,11.8573349 225.514118,11.54 C225.980787,11.2226651 226.503448,10.9800008 227.082118,10.812 C227.660787,10.6439992 228.258115,10.56 228.874118,10.56 C229.807456,10.56 230.67078,10.7466648 231.464118,11.12 C232.257455,11.4933352 232.878115,12.0999958 233.326118,12.94 L231.506118,14.144 C231.226116,13.677331 230.857453,13.2993348 230.400118,13.01 C229.942782,12.7206652 229.387454,12.576 228.734118,12.576 C228.435449,12.576 228.132119,12.613333 227.824118,12.688 C227.516116,12.762667 227.240786,12.8746659 226.998118,13.024 C226.75545,13.1733341 226.554785,13.3646655 226.396118,13.598 C226.23745,13.8313345 226.158118,14.0973318 226.158118,14.396 C226.158118,14.6760014 226.246783,14.913999 226.424118,15.11 C226.601452,15.306001 226.844116,15.4786659 227.152118,15.628 C227.460119,15.7773341 227.814782,15.9079994 228.216118,16.02 C228.617453,16.1320006 229.032782,16.225333 229.462118,16.3 C230.040787,16.4120006 230.591448,16.5566658 231.114118,16.734 C231.636787,16.9113342 232.094116,17.1493318 232.486118,17.448 C232.87812,17.7466682 233.186117,18.1199978 233.410118,18.568 C233.634119,19.0160022 233.746118,19.5666634 233.746118,20.22 C233.746118,20.9666704 233.596786,21.6013307 233.298118,22.124 C232.999449,22.6466693 232.602787,23.0713317 232.108118,23.398 C231.613449,23.7246683 231.053454,23.9626659 230.428118,24.112 C229.802781,24.2613341 229.163454,24.336 228.510118,24.336 C227.390112,24.336 226.424122,24.1633351 225.612118,23.818 C224.800114,23.4726649 224.067454,22.833338 223.414118,21.9 L225.150118,20.556 Z" id="FieldMaps" fill-rule="nonzero"></path>
                        <g id="ArcGIS">
                            <path d="M89.9007258,3.45422043 L89.9007258,4.91475806 L89.4812097,4.91475806 L89.4812097,1.58193548 L90.7630645,1.58193548 C91.5166398,1.58193548 91.8118548,1.90822581 91.8118548,2.50642473 C91.8118548,3.12016129 91.423414,3.37653226 90.9728226,3.45422043 L91.9672312,4.91475806 L91.4933333,4.91475806 L90.4989247,3.45422043 L89.9007258,3.45422043 Z M89.9007258,1.95483871 L89.9007258,3.0813172 L90.4367742,3.0813172 C90.8951344,3.0813172 91.3923387,3.05801075 91.3923387,2.50642473 C91.3923387,2.07913978 91.0038978,1.95483871 90.6465323,1.95483871 L89.9007258,1.95483871 Z M87.64,3.26 C87.64,1.66739247 88.9373925,0.37 90.53,0.37 C92.1226075,0.37 93.42,1.66739247 93.42,3.26 C93.42,4.85260753 92.1226075,6.15 90.53,6.15 C88.9373925,6.15 87.64,4.85260753 87.64,3.26 Z M88.0595161,3.26 C88.0595161,4.62731183 89.1626882,5.73048387 90.53,5.73048387 C91.8973118,5.73048387 93.0004839,4.62731183 93.0004839,3.26 C93.0004839,1.89268817 91.8973118,0.789516129 90.53,0.789516129 C89.1626882,0.789516129 88.0595161,1.89268817 88.0595161,3.26 Z" id="®"></path>
                            <path d="M9.712,4.176 L11.924,4.176 L20.352,24 L17.608,24 L15.592,19.128 L5.68,19.128 L3.636,24 L0.976,24 L9.712,4.176 Z M10.776,7.2 L10.72,7.2 L6.604,16.944 L14.696,16.944 L10.776,7.2 Z M22.424,14.004 C22.424,13.5559978 22.4135001,13.1290004 22.3925001,12.7230007 L22.368,12.324 C22.3306665,11.8013307 22.312,11.3253355 22.312,10.896 L24.384,10.896 L24.391,11.428 L24.391,11.428 L24.412,11.96 C24.4306668,12.3146684 24.44,12.6786648 24.44,13.052 L24.496,13.052 C24.6453341,12.7346651 24.855332,12.4266682 25.126,12.128 C25.396668,11.8293318 25.7186648,11.5633345 26.092,11.33 C26.4653352,11.0966655 26.885331,10.9100007 27.352,10.77 C27.818669,10.6299993 28.322664,10.56 28.864,10.56 C29.0133341,10.56 29.1626659,10.5693332 29.312,10.588 C29.4613341,10.6066668 29.6106659,10.6439997 29.76,10.7 L29.62,12.912 C29.2466648,12.7999994 28.8546687,12.744 28.444,12.744 C27.0999933,12.744 26.1246697,13.1779957 25.518,14.046 C24.9113303,14.9140043 24.608,16.1039924 24.608,17.616 L24.608,24 L22.424,24 L22.424,14.004 Z M40.932,14.172 C40.465331,13.6119972 39.961336,13.2060013 39.42,12.954 C38.878664,12.7019987 38.2813366,12.576 37.628,12.576 C36.8999964,12.576 36.2560028,12.7019987 35.696,12.954 C35.1359972,13.2060013 34.6740018,13.5559978 34.31,14.004 C33.9459982,14.4520022 33.6706676,14.9699971 33.484,15.558 C33.2973324,16.1460029 33.204,16.7759966 33.204,17.448 C33.204,18.1200034 33.3113323,18.7499971 33.526,19.338 C33.7406677,19.9260029 34.0393314,20.4439978 34.422,20.892 C34.8046686,21.3400022 35.266664,21.6899987 35.808,21.942 C36.349336,22.1940013 36.9559966,22.32 37.628,22.32 C39.0653405,22.32 40.1759961,21.7786721 40.96,20.696 L42.584,22.236 C41.9493302,22.9640036 41.202671,23.4959983 40.344,23.832 C39.485329,24.1680017 38.5800048,24.336 37.628,24.336 C36.619995,24.336 35.6960042,24.1680017 34.856,23.832 C34.0159958,23.4959983 33.3020029,23.0200031 32.714,22.404 C32.1259971,21.7879969 31.6686683,21.06 31.342,20.22 C31.0153317,19.3799958 30.852,18.456005 30.852,17.448 C30.852,16.4586617 31.0153317,15.5440042 31.342,14.704 C31.6686683,13.8639958 32.1306637,13.1360031 32.728,12.52 C33.3253363,11.9039969 34.0393292,11.4233351 34.87,11.078 C35.7006708,10.7326649 36.619995,10.56 37.628,10.56 C38.5986715,10.56 39.5179957,10.7279983 40.386,11.064 C41.2540043,11.4000017 42.0146634,11.9226631 42.668,12.632 L40.932,14.172 Z M62.688,22.544 C60.2426544,23.8506732 57.5080151,24.504 54.484,24.504 C52.9533257,24.504 51.5486731,24.2566691 50.27,23.762 C48.9913269,23.2673309 47.8900046,22.5673379 46.966,21.662 C46.0419954,20.7566621 45.3186693,19.6693397 44.796,18.4 C44.2733307,17.1306603 44.012,15.7213411 44.012,14.172 C44.012,12.5853254 44.2733307,11.1433398 44.796,9.846 C45.3186693,8.54866018 46.0419954,7.44267124 46.966,6.528 C47.8900046,5.61332876 48.9913269,4.90866914 50.27,4.414 C51.5486731,3.91933086 52.9533257,3.672 54.484,3.672 C55.9960076,3.672 57.41466,3.85399818 58.74,4.218 C60.06534,4.58200182 61.2506614,5.230662 62.296,6.164 L59.692,8.796 C59.0573302,8.17999692 58.2873379,7.70400168 57.382,7.368 C56.4766621,7.03199832 55.520005,6.864 54.512,6.864 C53.4853282,6.864 52.5566708,7.04599818 51.726,7.41 C50.8953292,7.77400182 50.1813363,8.27799678 49.584,8.922 C48.9866637,9.56600322 48.5246683,10.317329 48.198,11.176 C47.8713317,12.034671 47.708,12.9586617 47.708,13.948 C47.708,15.0120053 47.8713317,15.9919955 48.198,16.888 C48.5246683,17.7840045 48.9866637,18.5586634 49.584,19.212 C50.1813363,19.8653366 50.8953292,20.3786648 51.726,20.752 C52.5566708,21.1253352 53.4853282,21.312 54.512,21.312 C55.4080045,21.312 56.2526627,21.2280008 57.046,21.06 C57.8393373,20.8919992 58.5439969,20.6306684 59.16,20.276 L59.16,15.6 L55.1,15.6 L55.1,12.408 L62.688,12.408 L62.688,22.544 Z M66.608,4.176 L70.136,4.176 L70.136,24 L66.608,24 L66.608,4.176 Z M84.024,8.432 C83.6506648,7.89066396 83.1513365,7.49400126 82.526,7.242 C81.9006635,6.98999874 81.2426701,6.864 80.552,6.864 C80.1413313,6.864 79.7446686,6.9106662 79.362,7.004 C78.9793314,7.0973338 78.6340015,7.24666564 78.326,7.452 C78.0179985,7.65733436 77.7706676,7.9233317 77.584,8.25 C77.3973324,8.5766683 77.304,8.96399776 77.304,9.412 C77.304,10.0840034 77.537331,10.5973316 78.004,10.952 C78.470669,11.3066684 79.0493299,11.6146654 79.74,11.876 C80.4306701,12.1373346 81.1866626,12.3893321 82.008,12.632 C82.8293374,12.8746679 83.5853299,13.2106645 84.276,13.64 C84.9666701,14.0693355 85.545331,14.6386631 86.012,15.348 C86.478669,16.0573369 86.712,16.9999941 86.712,18.176 C86.712,19.2400053 86.516002,20.1686627 86.124,20.962 C85.731998,21.7553373 85.20467,22.4133307 84.542,22.936 C83.87933,23.4586693 83.1093377,23.8506654 82.232,24.112 C81.3546623,24.3733346 80.4306715,24.504 79.46,24.504 C78.2279938,24.504 77.0426724,24.2986687 75.904,23.888 C74.7653276,23.4773313 73.7853374,22.7866715 72.964,21.816 L75.624,19.24 C76.0533355,19.8933366 76.6179965,20.4019982 77.318,20.766 C78.0180035,21.1300018 78.7599961,21.312 79.544,21.312 C79.9546687,21.312 80.3653313,21.2560006 80.776,21.144 C81.1866687,21.0319994 81.5599983,20.8640011 81.896,20.64 C82.2320017,20.4159989 82.5026656,20.1313351 82.708,19.786 C82.9133344,19.4406649 83.016,19.0440022 83.016,18.596 C83.016,17.8679964 82.782669,17.308002 82.316,16.916 C81.849331,16.523998 81.2706701,16.192668 80.58,15.922 C79.8893299,15.651332 79.1333374,15.3946679 78.312,15.152 C77.4906626,14.9093321 76.7346701,14.5780021 76.044,14.158 C75.3533299,13.7379979 74.774669,13.1780035 74.308,12.478 C73.841331,11.7779965 73.608,10.8400059 73.608,9.664 C73.608,8.6373282 73.8179979,7.7506704 74.238,7.004 C74.6580021,6.2573296 75.2086633,5.63666914 75.89,5.142 C76.5713367,4.64733086 77.3506623,4.27866788 78.228,4.036 C79.1053377,3.79333212 80.0013288,3.672 80.916,3.672 C81.9613386,3.672 82.9739951,3.83066508 83.954,4.148 C84.9340049,4.46533492 85.8159961,4.98799636 86.6,5.716 L84.024,8.432 Z" fill-rule="nonzero"></path>
                        </g>
                    </g>
                </g>
            </g>
        </g>
    </g>
</svg>
